<?xml version="1.0" encoding="UTF-8" standalone="no"?>
<!-- Created with Inkscape (http://www.inkscape.org/) -->

<svg
   xmlns:dc="http://purl.org/dc/elements/1.1/"
   xmlns:cc="http://creativecommons.org/ns#"
   xmlns:rdf="http://www.w3.org/1999/02/22-rdf-syntax-ns#"
   xmlns:svg="http://www.w3.org/2000/svg"
   xmlns="http://www.w3.org/2000/svg"
   xmlns:sodipodi="http://sodipodi.sourceforge.net/DTD/sodipodi-0.dtd"
   xmlns:inkscape="http://www.inkscape.org/namespaces/inkscape"
   width="158"
   height="26"
   id="svg7403"
   version="1.1"
   inkscape:version="0.48.4 r9939"
   sodipodi:docname="New document 4">
  <defs
     id="defs7405" />
  <sodipodi:namedview
     id="base"
     pagecolor="#ffffff"
     bordercolor="#666666"
     borderopacity="1.0"
     inkscape:pageopacity="0.0"
     inkscape:pageshadow="2"
     inkscape:zoom="5.6"
     inkscape:cx="91.935464"
     inkscape:cy="4.7782922"
     inkscape:document-units="px"
     inkscape:current-layer="layer1"
     showgrid="false"
     inkscape:window-width="1600"
     inkscape:window-height="837"
     inkscape:window-x="-8"
     inkscape:window-y="-8"
     inkscape:window-maximized="1" />
  <metadata
     id="metadata7408">
    <rdf:RDF>
      <cc:Work
         rdf:about="">
        <dc:format>image/svg+xml</dc:format>
        <dc:type
           rdf:resource="http://purl.org/dc/dcmitype/StillImage" />
        <dc:title></dc:title>
      </cc:Work>
    </rdf:RDF>
  </metadata>
  <g
     inkscape:label="Layer 1"
     inkscape:groupmode="layer"
     id="layer1"
     transform="translate(0,-1026.3622)">
    <path
       inkscape:connector-curvature="0"
       id="path184"
       style="fill:#f9f9f9;fill-opacity:1;fill-rule:nonzero;stroke:none"
       d="m 2.378048,1038.4351 c 0.6348149,0.7644 1.4845829,1.356 2.5131437,1.8462 l 13.7198373,0 c -0.594637,-0.7292 -1.382129,-1.3319 -2.357454,-1.8462 l -13.875527,0 z m 8.286239,3.6931 c 3.090705,0.896 3.774738,1.6092 3.774738,2.8908 0,1.5107 -1.367062,2.4067 -3.634115,2.4067 -2.8817781,0 -5.2593206,-1.1873 -7.5273775,-3.0575 L -7.1499998e-7,1048.2905 C 3.0234056,1050.9915 6.8764909,1052.3274 10.697434,1052.3274 c 5.434096,0 9.254034,-2.8104 9.254034,-7.8528 0,-0.9 -0.116516,-1.6644 -0.334483,-2.3464 l -8.952698,0 z m 0.189745,-5.5412 c -3.4332235,-0.9311 -4.3362276,-1.5167 -4.3362276,-3.0645 0,-1.2506 1.1189617,-2.2249 3.2383595,-2.2249 2.1294431,0 4.3251791,0.9351 6.5600891,2.484 l 2.878765,-4.1765 c -2.560353,-2.0551 -5.689227,-3.2082 -9.3625156,-3.2082 -5.1508398,0 -8.8241278,3.0354 -8.8241278,7.6328 0,1.0055 0.1275656,1.8372 0.3595945,2.5573 l 9.4860629,0 z m 73.397755,7.476 c -1.4434,1.9567 -3.766702,3.2384 -6.385313,3.2384 -3.410121,0 -6.30998,-2.1515 -7.436977,-5.1729 l -5.326619,0 c 1.271638,5.8831 6.497812,10.2916 12.763596,10.2916 4.024847,0 7.623805,-1.8241 10.021437,-4.6918 l -3.636124,-3.6653 z m -6.385209,-12.64 c 2.559349,0 4.82841,1.2204 6.277837,3.1008 l 3.398068,-3.9274 c -2.387587,-2.6348 -5.839895,-4.2921 -9.675905,-4.2921 -6.260761,0 -11.488944,4.4046 -12.763596,10.2826 l 5.331642,0 c 1.128001,-3.0144 4.024846,-5.1639 7.431954,-5.1639 m -7.885566,8.8587 c -0.03616,-0.3033 -0.05625,-0.6057 -0.05625,-0.9191 0,-0.3154 0.02314,-0.6237 0.05826,-0.9271 l -5.138786,0 c -0.01913,0.3074 -0.03713,0.6127 -0.03713,0.9271 0,0.3104 0.01205,0.6158 0.03713,0.9191 l 5.136777,0 z m 4.442499,-0.9304 c 0,1.9125 1.547864,3.4613 3.460344,3.4613 1.911476,0 3.461348,-1.5488 3.461348,-3.4613 0,-1.9115 -1.549872,-3.4594 -3.461348,-3.4594 -1.91248,0 -3.460344,1.5479 -3.460344,3.4594 m -12.811111,-0.9162 -15.20241,0 -0.785483,1.8462 16.771367,0 -0.783474,-1.8462 z m -16.775586,3.6931 -4.189577,9.8346 5.658089,0 2.306226,-5.65 10.658261,0 2.304217,5.65 5.796704,0 -4.186564,-9.8346 -18.347356,0 z m 11.73072,-15.548 -5.113674,0 -4.257881,10.0064 13.629436,0 -4.257881,-10.0064 z m -29.598147,0.1784 -5.546595,0 0,9.8285 5.546595,0 0,-9.8285 z m -0.004,15.3696 -5.543581,0 0,9.8346 18.112313,0 0,-5.0373 -12.568732,0 0,-4.7973 z m 0.004,-3.6929 -5.546595,0 0,1.8462 5.546595,0 0,-1.8462 z m 75.903573,11.5471 1.07074,-2.6035 0.0131,0 1.05669,2.6035 -2.14049,0 z m 0.76238,-3.5979 -2.49708,5.6701 0.9,0 0.56249,-1.4052 2.69495,0 0.56149,1.4052 0.903,0 -2.42575,-5.6701 -0.6991,0 z m -5.554633,4e-4 -0.77142,0 0,5.6701 3.372953,0 0,-0.7272 -2.601533,0 0,-4.9429 z m 52.851553,2.4891 -1.54686,-2.4891 -0.97834,0 2.14351,3.2475 0,2.4227 0.76338,0 0,-2.4227 2.15355,-3.2475 -0.94117,0 -1.59407,2.4891 z m -6.72271,0.013 0,-1.823 1.01249,0 c 0.60367,0 1.20835,0.1356 1.20835,0.911 0,0.7644 -0.60468,0.912 -1.20835,0.912 l -1.01249,0 z m 3.04349,-0.912 c 0,-0.7112 -0.36562,-1.59 -1.81605,-1.59 l -1.99585,0 0,5.6701 0.76841,0 0,-2.5021 0.8578,0 1.4424,2.5021 0.95624,0 -1.60512,-2.5885 c 0.85077,-0.093 1.39217,-0.7734 1.39217,-1.4916 m -8.33646,3.5022 c -1.29374,0 -2.13647,-1.0205 -2.13647,-2.2569 0,-1.2386 0.84273,-2.254 2.13647,-2.254 1.29173,0 2.13346,1.0154 2.13346,2.254 0,1.2364 -0.84173,2.2569 -2.13346,2.2569 m 0,-5.2291 c -1.72866,0 -2.95812,1.2927 -2.95812,2.9722 0,1.6794 1.22946,2.9741 2.95812,2.9741 1.72465,0 2.95008,-1.2947 2.95008,-2.9741 0,-1.6795 -1.22543,-2.9722 -2.95008,-2.9722 m -7.84489,0.8631 1.82911,0 0,4.9439 0.7674,0 0,-4.9439 1.82409,0 0,-0.7262 -4.4206,0 0,0.7262 z m -3.95503,2.8717 1.07175,-2.6036 0.017,0 1.05467,2.6036 -2.1435,0 z m 0.7664,-3.598 -2.49507,5.6701 0.89698,0 0.55647,-1.4052 2.69897,0 0.57052,1.4052 0.89296,0 -2.42274,-5.6701 -0.69809,0 z m -6.6067,2.5021 0,-1.823 1.00747,0 c 0.60669,0 1.21338,0.1356 1.21338,0.911 0,0.7644 -0.60669,0.912 -1.21338,0.912 l -1.00747,0 z m 3.04149,-0.912 c 0,-0.7112 -0.36864,-1.59 -1.81606,-1.59 l -1.99082,0 0,5.6701 0.76539,0 0,-2.5021 0.8558,0 1.44139,2.5021 0.95925,0 -1.60311,-2.5885 c 0.85479,-0.093 1.38816,-0.7734 1.38816,-1.4916 m -8.31045,3.5022 c -1.29675,0 -2.13447,-1.0205 -2.13447,-2.2569 0,-1.2386 0.83772,-2.254 2.13447,-2.254 1.28771,0 2.13446,1.0154 2.13446,2.254 0,1.2364 -0.84675,2.2569 -2.13446,2.2569 m 0,-5.2291 c -1.72666,0 -2.96113,1.2927 -2.96113,2.9722 0,1.6794 1.23447,2.9741 2.96113,2.9741 1.72464,0 2.95008,-1.2947 2.95008,-2.9741 0,-1.6795 -1.22544,-2.9722 -2.95008,-2.9722 m -6.18222,5.1315 -1.12699,0 0,-1.9657 1.13603,0 c 0.74732,0 1.21338,0.3295 1.21338,1.0034 0,0.8046 -0.75635,0.9623 -1.22242,0.9623 m -1.12699,-4.3161 1.21137,0 c 0.61171,0 0.88994,0.3797 0.88994,0.8277 0,0.6157 -0.46908,0.8477 -1.05266,0.8477 l -1.04865,0 0,-1.6754 z m 1.94462,2.0029 0,-0.013 c 0.57254,-0.1939 0.97532,-0.5986 0.97532,-1.2506 0,-0.9562 -0.73626,-1.4172 -1.72163,-1.4172 l -1.96371,0 0,5.6691 1.94061,0 c 1.10088,0 1.99183,-0.5615 1.99183,-1.583 0,-0.7544 -0.54743,-1.355 -1.22242,-1.4053 m 44.09975,-10.0428 0,-1.8201 1.00947,0 c 0.60468,0 1.2164,0.1407 1.2164,0.9101 0,0.7694 -0.61172,0.91 -1.2164,0.91 l -1.00947,0 z m 1.6473,0.5897 c 0.85479,-0.097 1.39217,-0.7755 1.39217,-1.4997 0,-0.7072 -0.36461,-1.578 -1.81504,-1.578 l -1.99385,0 0,5.656 0.76942,0 0,-2.49 0.85479,0 1.44038,2.49 0.96227,0 -1.61014,-2.5783 z m -9.00262,-0.2518 c 0,-1.2375 0.8357,-2.258 2.13346,-2.258 1.29675,0 2.13848,1.0205 2.13848,2.258 0,1.2435 -0.84173,2.2591 -2.13848,2.2591 -1.29776,0 -2.13346,-1.0156 -2.13346,-2.2591 m 5.08153,0 c 0,-1.6835 -1.21539,-2.9742 -2.94807,-2.9742 -1.72766,0 -2.95008,1.2907 -2.95008,2.9742 0,1.6794 1.22242,2.9742 2.95008,2.9742 1.73268,0 2.94807,-1.2948 2.94807,-2.9742 m -8.95812,2.8305 0.77041,0 0,-4.9389 1.82108,0 0,-0.7172 -4.41759,0 0,0.7172 1.8261,0 0,4.9389 z m -5.78445,-2.0692 1.06974,-2.5975 0.0161,0 1.06171,2.5975 -2.14752,0 z m 0.7674,-3.5869 -2.49406,5.6561 0.89397,0 0.56249,-1.3972 2.69294,0 0.56953,1.3972 0.89195,0 -2.41772,-5.6561 -0.6991,0 z m -5.59842,2.4877 -1.00747,0 0,-1.8201 1.00747,0 c 0.60669,0 1.21739,0.1407 1.21739,0.9101 0,0.7694 -0.6107,0.91 -1.21739,0.91 m 2.03301,-0.91 c 0,-0.7072 -0.36662,-1.578 -1.81806,-1.578 l -1.99183,0 0,5.656 0.76941,0 0,-2.49 0.85479,0 1.4444,2.49 0.95825,0 -1.61415,-2.5783 c 0.86182,-0.097 1.39719,-0.7755 1.39719,-1.4997 m -5.82814,-0.8605 0,-0.7172 -3.66123,0 0,5.6561 3.80788,0 0,-0.7202 -3.03546,0 0,-1.8151 2.68792,0 0,-0.7161 -2.68792,0 0,-1.6875 2.88881,0 z m -8.51968,-0.7175 0,5.656 3.36894,0 0,-0.7201 -2.60154,0 0,-4.9359 -0.7674,0 z m -2.02266,0.7175 0,-0.7172 -3.65722,0 0,5.6561 3.80487,0 0,-0.7202 -3.03747,0 0,-1.8151 2.69294,0 0,-0.7161 -2.69294,0 0,-1.6875 2.88982,0 z m -7.15865,-0.1491 c 0.5193,0 1.04564,0.232 1.36706,0.6469 l 0.63984,-0.4812 c -0.45904,-0.6016 -1.23849,-0.8828 -1.98279,-0.8828 -1.74273,0 -2.95209,1.2645 -2.95209,3.0223 0,1.4243 1.10992,2.926 2.91191,2.926 1.29373,0 1.97576,-0.7553 2.14551,-0.9904 l -0.64988,-0.4912 c -0.33649,0.4752 -0.83269,0.7674 -1.47956,0.7674 -1.31784,0 -2.11337,-1.0165 -2.11337,-2.2118 0,-1.2846 0.84073,-2.3052 2.11337,-2.3052 m -5.72066,4.5166 c -1.31584,0 -2.10936,-1.0154 -2.10936,-2.2118 0,-1.2846 0.83872,-2.3052 2.10936,-2.3052 0.52131,0 1.05367,0.232 1.36706,0.6469 l 0.64486,-0.4812 c -0.45602,-0.6006 -1.23849,-0.8819 -1.98681,-0.8819 -1.74373,0 -2.95008,1.2647 -2.95008,3.0214 0,1.4243 1.11394,2.927 2.9099,2.927 1.30278,0 1.97375,-0.7563 2.14752,-0.9914 l -0.64687,-0.4901 c -0.33749,0.4741 -0.8357,0.7663 -1.48558,0.7663 m -7.360344,-1.4978 1.073761,-2.5975 0.01302,0 1.061703,2.5975 -2.148522,0 z m 3.889244,2.0692 -2.421737,-5.6561 -0.700105,0 -2.491045,5.6561 0.895973,0 0.55948,-1.3972 2.699974,0 0.55848,1.3972 0.89898,0 z m 39.08451,-10.5747 -2.59651,0 0,-4.945 -0.77143,0 0,5.6642 3.36794,0 0,-0.7192 z m -8.62264,-1.3488 1.07377,-2.6046 0.01,0 1.0607,2.6046 -2.14451,0 z m 1.4655,-3.5959 -0.69407,0 -2.49808,5.6641 0.89296,0 0.56249,-1.4012 2.69696,0 0.56651,1.4012 0.89899,0 -2.42576,-5.6641 z m -8.57371,1.0058 0.0181,0 3.14896,4.6587 0.97533,0 0,-5.6641 -0.76841,0 0,4.6556 -0.0161,0 -3.11783,-4.6556 -1.00746,0 0,5.6641 0.7674,0 0,-4.6587 z m -5.32341,4.085 c -1.29775,0 -2.13848,-1.0165 -2.13848,-2.257 0,-1.2435 0.84073,-2.258 2.13848,-2.258 1.29575,0 2.13547,1.0145 2.13547,2.258 0,1.2405 -0.83972,2.257 -2.13547,2.257 m 2.94707,-2.257 c 0,-1.6825 -1.2194,-2.9832 -2.94707,-2.9832 -1.73368,0 -2.95108,1.3007 -2.95108,2.9832 0,1.6775 1.2174,2.9782 2.95108,2.9782 1.72767,0 2.94707,-1.3007 2.94707,-2.9782 m -8.3225,2.8303 0.76238,0 0,-5.664 -0.76238,0 0,5.664 z m -4.04474,0 0.76238,0 0,-4.9479 1.83112,0 0,-0.7161 -4.41658,0 0,0.7161 1.82308,0 0,4.9479 z m -4.63385,-4.6725 0.0181,0 1.05568,2.6045 -2.1425,0 1.06874,-2.6045 z m -1.34597,3.2715 2.69897,0 0.56953,1.4012 0.88994,0 -2.41571,-5.6641 -0.70312,0 -2.49606,5.6641 0.89496,0 0.56149,-1.4012 z m -6.756853,-3.2573 0.01406,0 3.149973,4.6587 0.97834,0 0,-5.6641 -0.7654,0 0,4.6556 -0.015,0 -3.124854,-4.6556 -1.008472,0 0,5.6641 0.77142,0 0,-4.6587 z" />
  </g>
</svg>
